<svg id="Layer_1" data-name="Layer 1" xmlns="http://www.w3.org/2000/svg" viewBox="0 0 95 71.07"><defs><style>.cls-1{fill:#268eff;}</style></defs><title>Favicon</title><path class="cls-1" d="M91.84,23,52.33,1.73a7.91,7.91,0,0,0-7.44,0L5.23,22.54a7.93,7.93,0,0,0-4.23,7v13.1a7.91,7.91,0,0,0,4.13,7L44.22,70.88a7.9,7.9,0,0,0,7.38.1L91.68,50.54A7.93,7.93,0,0,0,96,43.48V30A7.91,7.91,0,0,0,91.84,23ZM49.24,50.18,31.07,41.59l-28,4.91L48.75,22.44,66.67,32.75l27.24-6.62Z" transform="translate(-1 -0.78)"/></svg>