<svg id="Layer_1" data-name="Layer 1" xmlns="http://www.w3.org/2000/svg" viewBox="0 0 370.52 71.04"><defs><style>.cls-1{fill:#ddd;}.cls-2{isolation:isolate;}</style></defs><title>logo (8)</title><path class="cls-1" d="M90.88,22.24,51.38,1a7.9,7.9,0,0,0-7.44,0L4.28,21.78a7.91,7.91,0,0,0-4.23,7v13.1a7.88,7.88,0,0,0,4.13,7L43.27,70.12a7.9,7.9,0,0,0,7.38.1L90.73,49.78a8,8,0,0,0,4.32-7.06V29.24A7.92,7.92,0,0,0,90.88,22.24ZM48.29,49.42,30.12,40.83l-28,4.91L47.8,21.68,65.72,32,93,25.37Z" transform="translate(-0.04 -0.04)"/><g class="cls-2"><g class="cls-2"><path class="cls-1" d="M117,21.87a3.64,3.64,0,0,1-2.63,1.05,3.58,3.58,0,0,1-2.61-1.05,3.44,3.44,0,0,1-1.06-2.54,3.47,3.47,0,0,1,1.06-2.57,3.58,3.58,0,0,1,2.61-1.05A3.64,3.64,0,0,1,117,16.76a3.56,3.56,0,0,1,0,5.11Zm-5.93,33V26.63h6.63V54.86Z" transform="translate(-0.04 -0.04)"/></g><g class="cls-2"><path class="cls-1" d="M122.59,16.43h14q8.63,0,13.45,5t4.82,14.12q0,9.14-4.82,14.22t-13.45,5.09h-14Zm6.87,5.8V49.05h6.45q5.81,0,8.89-3.46t3.09-10q0-6.45-3.11-9.9t-8.87-3.45Z" transform="translate(-0.04 -0.04)"/></g><g class="cls-2"><path class="cls-1" d="M166.53,55.31a9.8,9.8,0,0,1-6.78-2.37,7.89,7.89,0,0,1-2.65-6.15,7.15,7.15,0,0,1,2.79-5.94q2.78-2.19,8-2.5l7.46-.43v-2a4.34,4.34,0,0,0-1.4-3.44A5.7,5.7,0,0,0,170,31.23a6.42,6.42,0,0,0-3.78,1,4.3,4.3,0,0,0-1.79,2.83H158.3a8.51,8.51,0,0,1,3.45-6.54A13.51,13.51,0,0,1,170.29,26a12.9,12.9,0,0,1,8.4,2.56,8.31,8.31,0,0,1,3.16,6.82V54.86h-6.39v-4.5h-.14A8.8,8.8,0,0,1,171.7,54,10.57,10.57,0,0,1,166.53,55.31Zm2-5a7.11,7.11,0,0,0,4.81-1.7,5.35,5.35,0,0,0,2-4.22V42.24l-6.53.39a6.75,6.75,0,0,0-3.72,1.19,3.24,3.24,0,0,0-1.31,2.7,3.3,3.3,0,0,0,1.31,2.76A5.54,5.54,0,0,0,168.53,50.31Z" transform="translate(-0.04 -0.04)"/><path class="cls-1" d="M185.58,34.72a7.54,7.54,0,0,1,3.14-6.28A13.3,13.3,0,0,1,197,26a12.63,12.63,0,0,1,8.06,2.44,8.07,8.07,0,0,1,3.24,6.35h-6.18A3.86,3.86,0,0,0,200.57,32a6,6,0,0,0-3.7-1,5.91,5.91,0,0,0-3.51.94A2.92,2.92,0,0,0,192,34.35q0,2.34,4,3.33l5,1.12c2.82.66,4.84,1.58,6,2.77A6.59,6.59,0,0,1,209,46.5,7.68,7.68,0,0,1,205.61,53a14.38,14.38,0,0,1-8.71,2.46A13.77,13.77,0,0,1,188.41,53a8.65,8.65,0,0,1-3.55-6.46h6.52a4.24,4.24,0,0,0,1.78,3,6.73,6.73,0,0,0,4,1,6.83,6.83,0,0,0,3.82-.92,2.84,2.84,0,0,0,1.4-2.49,2.41,2.41,0,0,0-.87-1.95,7.61,7.61,0,0,0-2.91-1.27l-5.14-1.2Q185.58,40.91,185.58,34.72Z" transform="translate(-0.04 -0.04)"/><path class="cls-1" d="M212.3,54.86V16.43h6.55V31.48H219a8.62,8.62,0,0,1,3.44-4,10.31,10.31,0,0,1,5.48-1.4,9.41,9.41,0,0,1,7.26,2.84,11,11,0,0,1,2.63,7.74V54.86h-6.64V38a6.72,6.72,0,0,0-1.48-4.66,5.49,5.49,0,0,0-4.32-1.66,6.07,6.07,0,0,0-4.71,1.9,7.2,7.2,0,0,0-1.71,5V54.86Z" transform="translate(-0.04 -0.04)"/><path class="cls-1" d="M257.79,55.31a10.37,10.37,0,0,1-5.39-1.38A9.25,9.25,0,0,1,248.81,50h-.13v4.82h-6.5V16.43h6.63V31.48H249a9,9,0,0,1,3.52-3.92,10,10,0,0,1,5.3-1.41,10.32,10.32,0,0,1,8.5,3.93q3.13,3.93,3.14,10.66T266.3,51.41A10.33,10.33,0,0,1,257.79,55.31Zm-2.05-23.7a6,6,0,0,0-5,2.51,10.58,10.58,0,0,0-1.93,6.62,10.56,10.56,0,0,0,1.93,6.64,6.35,6.35,0,0,0,10.07,0,10.92,10.92,0,0,0,1.85-6.68,10.76,10.76,0,0,0-1.87-6.67A6,6,0,0,0,255.74,31.61Z" transform="translate(-0.04 -0.04)"/><path class="cls-1" d="M295.08,51.49a14.59,14.59,0,0,1-19.92,0q-3.71-3.93-3.7-10.75c0-4.52,1.24-8.11,3.72-10.74a14.47,14.47,0,0,1,19.89,0c2.48,2.63,3.71,6.22,3.71,10.74S297.55,48.87,295.08,51.49Zm-15-3.79a6.42,6.42,0,0,0,10.12,0,11.41,11.41,0,0,0,1.86-7,11.37,11.37,0,0,0-1.86-6.93,6.38,6.38,0,0,0-10.11,0,11.3,11.3,0,0,0-1.88,6.93A11.34,11.34,0,0,0,280.06,47.7Z" transform="translate(-0.04 -0.04)"/><path class="cls-1" d="M310.26,55.31a9.76,9.76,0,0,1-6.77-2.37,7.86,7.86,0,0,1-2.65-6.15,7.14,7.14,0,0,1,2.78-5.94q2.78-2.19,7.95-2.5l7.46-.43v-2a4.34,4.34,0,0,0-1.4-3.44,5.68,5.68,0,0,0-3.88-1.23,6.42,6.42,0,0,0-3.78,1,4.25,4.25,0,0,0-1.78,2.83H302a8.57,8.57,0,0,1,3.45-6.54A13.53,13.53,0,0,1,314,26a12.9,12.9,0,0,1,8.4,2.56,8.31,8.31,0,0,1,3.16,6.82V54.86h-6.39v-4.5h-.14A8.8,8.8,0,0,1,315.43,54,10.54,10.54,0,0,1,310.26,55.31Zm2-5a7.11,7.11,0,0,0,4.81-1.7,5.32,5.32,0,0,0,2-4.22V42.24l-6.53.39a6.69,6.69,0,0,0-3.71,1.19,3.24,3.24,0,0,0-1.32,2.7,3.3,3.3,0,0,0,1.32,2.76A5.49,5.49,0,0,0,312.26,50.31Z" transform="translate(-0.04 -0.04)"/></g><g class="cls-2"><path class="cls-1" d="M328.17,54.86V26.63h6.37v4.92h.13a7.5,7.5,0,0,1,2.49-4,6.66,6.66,0,0,1,4.28-1.41,10.22,10.22,0,0,1,2.07.26v6a7.72,7.72,0,0,0-2.69-.38,5.76,5.76,0,0,0-4.42,1.71,6.62,6.62,0,0,0-1.6,4.69V54.86Z" transform="translate(-0.04 -0.04)"/></g><g class="cls-2"><path class="cls-1" d="M355,55.31a10.42,10.42,0,0,1-8.54-3.94q-3.18-3.94-3.18-10.65t3.18-10.63A10.42,10.42,0,0,1,355,26.15a9.94,9.94,0,0,1,5.29,1.41,8.94,8.94,0,0,1,3.45,3.81h.16V16.43h6.63V54.86h-6.5V50H364a9,9,0,0,1-3.53,3.85A10.21,10.21,0,0,1,355,55.31Zm2-23.7A6,6,0,0,0,352,34.07a10.76,10.76,0,0,0-1.87,6.67A10.87,10.87,0,0,0,352,47.43a6.42,6.42,0,0,0,10.11,0A10.71,10.71,0,0,0,364,40.74a10.7,10.7,0,0,0-1.89-6.64A6,6,0,0,0,357,31.61Z" transform="translate(-0.04 -0.04)"/></g></g></svg>